<?xml version="1.0" standalone="no"?>
<!DOCTYPE svg PUBLIC "-//W3C//DTD SVG 1.0//EN" "http://www.w3.org/TR/2001/REC-SVG-20010904/DTD/svg10.dtd">
<svg xmlns="http://www.w3.org/2000/svg" xmlns:xlink="http://www.w3.org/1999/xlink" id="body_1" width="70" height="30">

<g transform="matrix(0.05859375 0 0 0.05859375 19.999998 -0)">
    <path d="M256 0C 397.4 0 512 114.6 512 256C 512 397.4 397.4 512 256 512C 201.7 512 151.2 495 109.7 466.1C 95.2 455.1 91.64 436 101.8 421.5C 111.9 407 131.8 403.5 146.3 413.6C 177.4 435.3 215.2 448 256 448C 362 448 448 362 448 256C 448 149.1 362 64 256 64C 202.1 64 155 85.46 120.2 120.2L120.2 120.2L151 151C 166.1 166.1 155.4 192 134.1 192L134.1 192L24 192C 10.75 192 0 181.3 0 168L0 168L0 57.94C 0 36.56 25.85 25.85 40.97 40.97L40.97 40.97L74.98 74.98C 121.3 28.69 185.3 0 255.1 0L255.1 0L256 0zM256 128C 269.3 128 280 138.7 280 152L280 152L280 246.1L344.1 311C 354.3 320.4 354.3 335.6 344.1 344.1C 335.6 354.3 320.4 354.3 311 344.1L311 344.1L239 272.1C 234.5 268.5 232 262.4 232 256L232 256L232 152C 232 138.7 242.7 128 256 128z" stroke="none" fill="#000000" fill-rule="nonzero" />
</g>
</svg>